# xmcd CD database file
#
# Track frame offsets:
#	150
#	25722
#	44500
#	72327
#
# Disc length: 1303 seconds
#
# Revision: 0
# Processed by: cddbd v1.5PL3 Copyright (c) Steve Scherf et al.
# Submitted via: CDex 1.51
#
DISCID=2f051504
DTITLE=y'z factory - YES, Growing Up!
DYEAR=2000
DGENRE=Pop
TTITLE0=YES, Growing Up!
TTITLE1=You are mine
TTITLE2=It's my treasure
TTITLE3=YES, Growing Up! Instrumental
EXTD=YEAR: 2000
EXTT0=
EXTT1=
EXTT2=
EXTT3=
PLAYORDER=
